<svg xmlns="http://www.w3.org/2000/svg" width="155" height="24.78" viewBox="0 0 155 24.78"><defs><style>.cls-1{fill:#fff;}</style></defs><title>logo_ds</title><g id="Layer_2" data-name="Layer 2"><g id="Layer_1-2" data-name="Layer 1"><path class="cls-1" d="M54.12,19.31a.61.61,0,0,1,.6.67c0,.65-.63.72-.93.72a1.89,1.89,0,0,1-2.1-1.65c0-.13,0-.23-.12-.23s0,0-.09.07a4.81,4.81,0,0,1-3.86,1.95,5.16,5.16,0,0,1-5.25-5.53,5.17,5.17,0,0,1,5.24-5.48,4.66,4.66,0,0,1,3.66,1.66c.12.16.18.28.23.28s.07-.12.07-.42c0-1.18,0-2.82,0-4.16,0-1.57,0-2-.92-2a2.2,2.2,0,0,0-.37,0h0a.6.6,0,0,1-.65-.6.69.69,0,0,1,.72-.7l.76,0a1.68,1.68,0,0,1,1.85,1.92v.09c0,1.94,0,5.69,0,8.86v3.14c0,1.11.39,1.39.9,1.39l.3,0Zm-2.55-4A4,4,0,0,0,47.66,11c-2.34,0-3.93,1.62-3.93,4.28s1.62,4.26,3.93,4.25A3.94,3.94,0,0,0,51.57,15.31Z"/><path class="cls-1" d="M64.15,19.14c0-.06,0-.11-.09-.11a.11.11,0,0,0-.09.07,4.27,4.27,0,0,1-3.52,1.78,3.44,3.44,0,0,1-3.74-3.19,3.07,3.07,0,0,1,2.47-2.87,36.64,36.64,0,0,1,4.28-1c.28,0,.37-.12.37-.28s0-.25,0-.37c0-1.27-.53-2.26-2.4-2.26a3.64,3.64,0,0,0-2.71,1.11.65.65,0,0,1-.49.23.62.62,0,0,1-.64-.63c0-.87,1.94-1.87,3.93-1.87,2.15,0,3.61.95,3.61,3.54a4.94,4.94,0,0,1,0,.65c-.06.76-.11,2-.11,2.84,0,1.69.16,2.25,1.09,2.57a.59.59,0,0,1,.39.58.62.62,0,0,1-.62.64A2,2,0,0,1,64.15,19.14Zm-.34-3.53v-.3c0-.19-.07-.26-.24-.26h-.06c-3.64.58-5.56,1-5.56,2.66a2.21,2.21,0,0,0,2.48,1.94C61.61,19.65,63.81,19.17,63.81,15.61Z"/><path class="cls-1" d="M71.85,11.28c-.37,0-.37,0-.37.32,0,.88-.06,3.26-.06,5s0,3,1.85,3c.2,0,.41,0,.64-.05H74a.57.57,0,0,1,.55.6c0,.6-.55.72-1.48.72-3,0-3-2.52-3-3.54,0-1.48,0-4.3,0-5.44v-.37c0-.23-.07-.25-.24-.25H68.57a.62.62,0,1,1,0-1.23h1.34c.21,0,.26,0,.25-.23s0-1.2,0-2V7.23a.67.67,0,1,1,1.34,0c0,.67,0,2.52,0,2.52,0,.25,0,.25.35.25h2.06a.6.6,0,0,1,.65.6.6.6,0,0,1-.65.63Z"/><path class="cls-1" d="M84.23,19.14c0-.07,0-.12-.09-.12a.15.15,0,0,0-.1.07,4.27,4.27,0,0,1-3.51,1.79,3.45,3.45,0,0,1-3.75-3.2,3.08,3.08,0,0,1,2.48-2.86,36.53,36.53,0,0,1,4.27-1c.28,0,.37-.12.37-.28s0-.26,0-.37C83.93,12,83.4,11,81.52,11a3.62,3.62,0,0,0-2.7,1.11.65.65,0,0,1-1.14-.39c0-.88,1.94-1.87,3.93-1.87,2.15,0,3.61.94,3.61,3.53,0,.21,0,.42,0,.65-.07.77-.12,2-.11,2.85,0,1.69.16,2.24,1.08,2.56a.6.6,0,0,1,.4.58.62.62,0,0,1-.63.65A2,2,0,0,1,84.23,19.14Zm-.35-3.54v-.3c0-.18-.07-.25-.23-.25h-.07c-3.63.58-5.55,1-5.55,2.66a2.21,2.21,0,0,0,2.48,1.94C81.68,19.65,83.88,19.16,83.88,15.6Z"/><path class="cls-1" d="M95.68,10.39c0,.49,0,.81,0,1.16s0,.67,0,1.2v.05a.56.56,0,0,1-.58.55.59.59,0,0,1-.65-.6c0-1.85-2.06-1.85-2.2-1.85-1.2,0-1.87.72-1.87,1.48a1.78,1.78,0,0,0,1.13,1.53c.65.3,1.76.76,2.48,1.13a3.32,3.32,0,0,1,2.06,2.87c0,1.27-1,3-3.66,3a3.62,3.62,0,0,1-2.31-.77.29.29,0,0,0-.16-.09s-.07.05-.07.12c0,.57-.28.64-.55.64a.56.56,0,0,1-.61-.55V20.2c0-.51,0-.85,0-1.2s0-.69,0-1.25v0a.61.61,0,0,1,.65-.61.59.59,0,0,1,.62.63c0,.16,0,.27,0,.44,0,.76,1.16,1.52,2.47,1.52s2.32-.67,2.32-1.78S93.69,16.13,91,15a2.79,2.79,0,0,1-1.87-2.57c0-1.34,1.09-2.66,3.15-2.66a3.69,3.69,0,0,1,2,.63.19.19,0,0,0,.14,0c.12,0,.09-.2.12-.27a.51.51,0,0,1,.53-.37.54.54,0,0,1,.58.55Z"/><path class="cls-1" d="M108.65,20.57c-.6,0-1.15-.05-1.66-.05s-1,0-1.55.05h0a.59.59,0,0,1-.62-.6.54.54,0,0,1,.62-.6c.6,0,.6-.14.6-.17a.18.18,0,0,0,0-.09c-1.23-1.2-3.13-3-3.84-3.7a.85.85,0,0,0-.7-.28c-.34,0-.37.21-.37,1.42,0,.55,0,1.29,0,2.4a.35.35,0,0,0,.39.39c.35,0,.32,0,.65,0h0a.63.63,0,1,1,0,1.25h0c-.6,0-1.2-.05-1.81-.05s-1.13,0-1.66.05a.61.61,0,0,1-.7-.6.65.65,0,0,1,.68-.65h0c.28,0,.32,0,.69,0a.36.36,0,0,0,.4-.39c0-2.43.06-5.55.06-8.37,0-1.62,0-3.17,0-4.42,0-.65-.19-.9-.77-.92h-.53a.63.63,0,0,1-.64-.65c0-.6.41-.67,1.22-.67,1.9,0,2.06,1.22,2.06,1.73,0,3,0,7.89,0,7.89a.35.35,0,0,0,.39.37c.25,0,.35,0,4-2.55a.16.16,0,0,0,.09-.11c0-.05,0-.07-.16-.07-.42,0-1,0-1-.56A.59.59,0,0,1,105,10h0c.58,0,1.09,0,1.62,0s1.06,0,1.66,0a.56.56,0,0,1,.67.6.61.61,0,0,1-.64.6h0c-.32,0-.13,0-.46,0a1.11,1.11,0,0,0-.58.21c-1.36.92-3.14,2.13-4.27,2.87-.14.09-.19.16-.19.23s.6.72,4.79,4.55a.83.83,0,0,0,.67.28l.35,0a.57.57,0,0,1,.64.6.61.61,0,0,1-.64.65Z"/><path class="cls-1" d="M116.31,20.87a5.17,5.17,0,0,1-5.23-5.46,5.29,5.29,0,0,1,5.16-5.6,4.3,4.3,0,0,1,4.55,3.79c0,.86-.5,1.51-1.68,1.55-.54,0-1.32,0-2.18,0-1.73,0-3.7,0-4.21,0-.23,0-.28.1-.28.42a3.79,3.79,0,0,0,3.89,4.07,4.12,4.12,0,0,0,3.35-1.53.68.68,0,0,1,1.16.47C120.84,19.11,119.22,20.87,116.31,20.87Zm0-9.9a3.75,3.75,0,0,0-3.63,2.84c0,.23.21.23,2.89.23,1.2,0,2.5,0,3.15,0s.76-.28.76-.65A2.9,2.9,0,0,0,116.26,11Z"/><path class="cls-1" d="M126.51,11.27c-.37,0-.37,0-.37.32,0,.88-.07,3.26-.07,5s0,3,1.85,3c.21,0,.42,0,.65,0h.09a.57.57,0,0,1,.55.6c0,.6-.55.71-1.48.71-3,0-3-2.52-3-3.53,0-1.48,0-4.31,0-5.44v-.37c0-.23-.07-.25-.23-.25h-1.37a.6.6,0,0,1-.65-.63.6.6,0,0,1,.65-.6h1.34c.21,0,.26,0,.26-.23s0-1.2,0-2V7.22a.67.67,0,1,1,1.34,0c0,.68,0,2.53,0,2.53,0,.25,0,.25.34.25h2.06a.6.6,0,0,1,.65.6.61.61,0,0,1-.65.63Z"/><path class="cls-1" d="M136.85,20.84a5.26,5.26,0,0,1-5.44-5.46,5.36,5.36,0,0,1,5.2-5.67,5.27,5.27,0,0,1,2.62.7.25.25,0,0,0,.11,0c.07,0,.1-.14.12-.25,0-.28.3-.39.55-.39s.67.18.67.57v0c0,.49,0,.83,0,1.2s0,.72,0,1.25v0c0,.39-.32.58-.67.58a.61.61,0,0,1-.64-.56c0-.48,0-.76-.23-1.09a3,3,0,0,0-2.36-.94,4.09,4.09,0,0,0-4,4.37,4.06,4.06,0,0,0,4,4.3,3.64,3.64,0,0,0,3-1.34.71.71,0,0,1,.6-.35.75.75,0,0,1,.74.72C141.08,19.29,139.35,20.84,136.85,20.84Z"/><path class="cls-1" d="M154.31,20.56c-.6,0-1.2,0-1.8,0s-1.14,0-1.67,0a.6.6,0,0,1-.69-.6.63.63,0,0,1,.67-.65h0c.3,0,.32,0,.69,0a.36.36,0,0,0,.37-.39c0-.76,0-1.64,0-2.5,0-1.2,0-2.29-.05-2.73A2.6,2.6,0,0,0,149.22,11a3.39,3.39,0,0,0-3.45,3c0,.44,0,1.14,0,2s0,1.87,0,3a.36.36,0,0,0,.4.39c.34,0,.32,0,.65,0a.62.62,0,0,1,.69.62.63.63,0,0,1-.67.63h0c-.61,0-1.23,0-1.81,0s-1.15,0-1.69,0a.6.6,0,0,1-.69-.6.64.64,0,0,1,.67-.65h0l.74,0a.34.34,0,0,0,.37-.39c0-1.87,0-4.79,0-7.56,0-2,0-3.84,0-5.23,0-.6-.18-.92-.78-1a3.47,3.47,0,0,0-.51,0h0a.63.63,0,0,1-.64-.65c0-.4.18-.7,1.18-.7a5.48,5.48,0,0,1,.57.05,1.62,1.62,0,0,1,1.58,1.76V7c0,1.87,0,4,0,4.27,0,.07,0,.12,0,.12s0,0,.09-.07a4.34,4.34,0,0,1,3.43-1.57,3.66,3.66,0,0,1,3.86,3.7c0,1,.05,3.63.05,5.46,0,.25.11.41.39.41s.33,0,.65,0h0a.63.63,0,1,1,0,1.25Z"/><path class="cls-1" d="M33.09,19l-7.32-5V2.31A2.31,2.31,0,0,0,23.46,0H2.31A2.32,2.32,0,0,0,0,2.31V17.7A2.32,2.32,0,0,0,2.31,20h10L8.53,23.8a.57.57,0,0,0,0,.81.56.56,0,0,0,.4.17.6.6,0,0,0,.41-.17l3.54-3.56,3.54,3.56a.57.57,0,0,0,.81-.81L13.47,20h10a2.31,2.31,0,0,0,2.31-2.31V15.39l6.67,4.52a.56.56,0,0,0,.33.1A.58.58,0,0,0,33.09,19Zm-8.46-5.74L20.7,10.56a.56.56,0,0,0-.79.15.58.58,0,0,0,.15.8l4.57,3.1V17.7a1.17,1.17,0,0,1-1.17,1.16H2.31A1.16,1.16,0,0,1,1.15,17.7V2.31A1.16,1.16,0,0,1,2.31,1.15H23.46a1.17,1.17,0,0,1,1.17,1.16Z"/></g></g></svg>